<svg width="631" height="549" viewBox="0 0 631 549" fill="none" xmlns="http://www.w3.org/2000/svg">
<path d="M317.328 235.899C318.431 235.302 319.674 235.013 320.927 235.061L619.181 246.554C624.499 246.759 627.652 252.588 624.914 257.151L465.562 522.664C464.314 524.743 462.079 526.028 459.654 526.061L225.105 529.231L164.02 529.272L131.335 529.236C128.432 529.233 125.832 527.439 124.8 524.726L68.6887 377.271C67.4405 373.991 68.8142 370.294 71.9012 368.624L317.328 235.899Z" fill="#016078"/>
<path d="M272.01 142.125C273.258 141.258 274.754 140.82 276.273 140.879L574.002 152.352C579.342 152.558 582.491 158.431 579.707 162.993L420.68 423.61C419.425 425.666 417.201 426.933 414.792 426.963L192.183 429.773C184.817 429.866 178.099 434 174.697 440.534L133.909 518.859C131.261 523.944 123.959 523.864 121.423 518.723L49.6762 373.302C48.5653 371.051 48.7454 368.377 50.1481 366.294L138.093 235.737C138.578 235.017 139.192 234.394 139.905 233.899L272.01 142.125Z" fill="#02A399"/>
<path d="M225.112 76.9125C226.427 75.0839 228.542 74 230.794 74H527.498C532.842 74 536.215 79.7474 533.609 84.4134L384.735 350.961C383.56 353.064 381.387 354.415 378.981 354.538L156.645 365.918C149.288 366.294 142.734 370.684 139.586 377.344L102.261 456.302C99.7361 461.642 92.1398 461.647 89.6078 456.311L36.7713 344.948C35.6785 342.644 35.9243 339.929 37.413 337.86L225.112 76.9125Z" fill="#68E570"/>
<path d="M190.112 2.91248C191.427 1.08391 193.542 0 195.794 0H492.498C497.842 0 501.215 5.74741 498.609 10.4134L349.735 276.961C348.56 279.064 346.387 280.415 343.981 280.538L121.645 291.918C114.288 292.294 107.734 296.684 104.586 303.344L67.2606 382.302C64.7361 387.642 57.1398 387.647 54.6078 382.311L1.77133 270.948C0.678542 268.644 0.924349 265.929 2.41299 263.86L190.112 2.91248Z" fill="#D9FC62"/>
</svg>
