<svg width="3020" height="651" viewBox="0 0 3020 651" fill="none" xmlns="http://www.w3.org/2000/svg">
<path d="M810.416 496L715.416 146H768.916L839.916 437.5L921.416 146H976.916L1055.92 438.5L1127.92 146H1181.42L1084.92 496H1026.42L947.916 217.5L867.416 496H810.416ZM1197.1 496V244H1247.1V496H1197.1ZM1222.6 196.5C1212.94 196.5 1204.94 193.5 1198.6 187.5C1192.6 181.5 1189.6 173.833 1189.6 164.5C1189.6 155.5 1192.6 148.167 1198.6 142.5C1204.94 136.5 1212.94 133.5 1222.6 133.5C1231.94 133.5 1239.77 136.5 1246.1 142.5C1252.44 148.167 1255.6 155.5 1255.6 164.5C1255.6 173.833 1252.44 181.5 1246.1 187.5C1239.77 193.5 1231.94 196.5 1222.6 196.5ZM1381.1 502C1359.77 502 1341.1 498.5 1325.1 491.5C1309.1 484.5 1296.44 474.667 1287.1 462C1277.77 449.333 1272.1 434.5 1270.1 417.5H1321.1C1322.77 425.5 1325.94 432.833 1330.6 439.5C1335.6 446.167 1342.27 451.5 1350.6 455.5C1359.27 459.5 1369.44 461.5 1381.1 461.5C1392.1 461.5 1401.1 460 1408.1 457C1415.44 453.667 1420.77 449.333 1424.1 444C1427.44 438.333 1429.1 432.333 1429.1 426C1429.1 416.667 1426.77 409.667 1422.1 405C1417.77 400 1411.1 396.167 1402.1 393.5C1393.44 390.5 1382.94 387.833 1370.6 385.5C1358.94 383.5 1347.6 380.833 1336.6 377.5C1325.94 373.833 1316.27 369.333 1307.6 364C1299.27 358.667 1292.6 352 1287.6 344C1282.6 335.667 1280.1 325.5 1280.1 313.5C1280.1 299.167 1283.94 286.333 1291.6 275C1299.27 263.333 1310.1 254.333 1324.1 248C1338.44 241.333 1355.27 238 1374.6 238C1402.6 238 1425.1 244.667 1442.1 258C1459.1 271.333 1469.1 290.167 1472.1 314.5H1423.6C1422.27 303.167 1417.27 294.5 1408.6 288.5C1399.94 282.167 1388.44 279 1374.1 279C1359.77 279 1348.77 281.833 1341.1 287.5C1333.44 293.167 1329.6 300.667 1329.6 310C1329.6 316 1331.77 321.333 1336.1 326C1340.44 330.667 1346.77 334.667 1355.1 338C1363.77 341 1374.27 343.833 1386.6 346.5C1404.27 349.833 1420.1 354 1434.1 359C1448.1 364 1459.27 371.333 1467.6 381C1475.94 390.667 1480.1 404.5 1480.1 422.5C1480.44 438.167 1476.44 452 1468.1 464C1460.1 476 1448.6 485.333 1433.6 492C1418.94 498.667 1401.44 502 1381.1 502ZM1617.97 502C1593.97 502 1572.64 496.5 1553.97 485.5C1535.31 474.5 1520.64 459.167 1509.97 439.5C1499.64 419.833 1494.47 397 1494.47 371C1494.47 344.333 1499.64 321.167 1509.97 301.5C1520.64 281.5 1535.31 266 1553.97 255C1572.64 243.667 1594.31 238 1618.97 238C1643.64 238 1664.81 243.5 1682.47 254.5C1700.14 265.5 1713.81 280.167 1723.47 298.5C1733.14 316.5 1737.97 336.5 1737.97 358.5C1737.97 361.833 1737.81 365.5 1737.47 369.5C1737.47 373.167 1737.31 377.333 1736.97 382H1530.97V346.5H1687.97C1686.97 325.5 1679.97 309.167 1666.97 297.5C1653.97 285.5 1637.81 279.5 1618.47 279.5C1604.81 279.5 1592.31 282.667 1580.97 289C1569.64 295 1560.47 304 1553.47 316C1546.81 327.667 1543.47 342.5 1543.47 360.5V374.5C1543.47 393.167 1546.81 409 1553.47 422C1560.47 434.667 1569.64 444.333 1580.97 451C1592.31 457.333 1604.64 460.5 1617.97 460.5C1633.97 460.5 1647.14 457 1657.47 450C1667.81 443 1675.47 433.5 1680.47 421.5H1730.47C1726.14 436.833 1718.81 450.667 1708.47 463C1698.14 475 1685.31 484.5 1669.97 491.5C1654.97 498.5 1637.64 502 1617.97 502ZM1761.03 496V146H1820.03L1938.53 382.5L2056.53 146H2116.03V496H2066.03V233.5L1957.53 447H1919.03L1811.03 234V496H1761.03ZM2266.26 502C2242.59 502 2221.26 496.5 2202.26 485.5C2183.59 474.5 2168.76 459.167 2157.76 439.5C2147.09 419.5 2141.76 396.5 2141.76 370.5C2141.76 343.833 2147.26 320.667 2158.26 301C2169.26 281 2184.26 265.5 2203.26 254.5C2222.26 243.5 2243.59 238 2267.26 238C2291.26 238 2312.59 243.5 2331.26 254.5C2349.93 265.5 2364.59 280.833 2375.26 300.5C2386.26 320.167 2391.76 343.333 2391.76 370C2391.76 396.667 2386.26 419.833 2375.26 439.5C2364.59 459.167 2349.76 474.5 2330.76 485.5C2311.76 496.5 2290.26 502 2266.26 502ZM2266.26 459C2279.93 459 2292.26 455.667 2303.26 449C2314.59 442.333 2323.59 432.5 2330.26 419.5C2337.26 406.167 2340.76 389.667 2340.76 370C2340.76 350.333 2337.43 334 2330.76 321C2324.09 307.667 2315.09 297.667 2303.76 291C2292.76 284.333 2280.59 281 2267.26 281C2253.93 281 2241.59 284.333 2230.26 291C2218.93 297.667 2209.76 307.667 2202.76 321C2196.09 334 2192.76 350.333 2192.76 370C2192.76 389.667 2196.09 406.167 2202.76 419.5C2209.76 432.5 2218.76 442.333 2229.76 449C2241.09 455.667 2253.26 459 2266.26 459ZM2415.58 496V244H2460.58L2463.58 287C2471.58 272 2482.91 260.167 2497.58 251.5C2512.24 242.5 2529.08 238 2548.08 238C2568.08 238 2585.24 242 2599.58 250C2613.91 258 2625.08 270.167 2633.08 286.5C2641.08 302.5 2645.08 322.667 2645.08 347V496H2595.08V352C2595.08 328.667 2589.91 311 2579.58 299C2569.24 287 2554.24 281 2534.58 281C2521.58 281 2509.91 284.167 2499.58 290.5C2489.24 296.5 2480.91 305.5 2474.58 317.5C2468.58 329.5 2465.58 344.167 2465.58 361.5V496H2415.58ZM2677.53 496V244H2727.53V496H2677.53ZM2703.03 196.5C2693.37 196.5 2685.37 193.5 2679.03 187.5C2673.03 181.5 2670.03 173.833 2670.03 164.5C2670.03 155.5 2673.03 148.167 2679.03 142.5C2685.37 136.5 2693.37 133.5 2703.03 133.5C2712.37 133.5 2720.2 136.5 2726.53 142.5C2732.87 148.167 2736.03 155.5 2736.03 164.5C2736.03 173.833 2732.87 181.5 2726.53 187.5C2720.2 193.5 2712.37 196.5 2703.03 196.5ZM2878.03 502C2854.03 502 2832.7 496.5 2814.03 485.5C2795.37 474.5 2780.7 459.167 2770.03 439.5C2759.7 419.833 2754.53 397 2754.53 371C2754.53 344.333 2759.7 321.167 2770.03 301.5C2780.7 281.5 2795.37 266 2814.03 255C2832.7 243.667 2854.37 238 2879.03 238C2903.7 238 2924.87 243.5 2942.53 254.5C2960.2 265.5 2973.87 280.167 2983.53 298.5C2993.2 316.5 2998.03 336.5 2998.03 358.5C2998.03 361.833 2997.87 365.5 2997.53 369.5C2997.53 373.167 2997.37 377.333 2997.03 382H2791.03V346.5H2948.03C2947.03 325.5 2940.03 309.167 2927.03 297.5C2914.03 285.5 2897.87 279.5 2878.53 279.5C2864.87 279.5 2852.37 282.667 2841.03 289C2829.7 295 2820.53 304 2813.53 316C2806.87 327.667 2803.53 342.5 2803.53 360.5V374.5C2803.53 393.167 2806.87 409 2813.53 422C2820.53 434.667 2829.7 444.333 2841.03 451C2852.37 457.333 2864.7 460.5 2878.03 460.5C2894.03 460.5 2907.2 457 2917.53 450C2927.87 443 2935.53 433.5 2940.53 421.5H2990.53C2986.2 436.833 2978.87 450.667 2968.53 463C2958.2 475 2945.37 484.5 2930.03 491.5C2915.03 498.5 2897.7 502 2878.03 502Z" fill="#0A3A3C"/>
<path d="M317.328 261.899C318.431 261.303 319.674 261.013 320.927 261.062L619.181 272.555C624.499 272.76 627.652 278.589 624.914 283.152L465.562 548.664C464.314 550.743 462.079 552.029 459.654 552.061L225.105 555.231L164.02 555.272L131.335 555.236C128.432 555.233 125.832 553.439 124.8 550.726L68.6887 403.271C67.4405 399.991 68.8142 396.294 71.9012 394.624L317.328 261.899Z" fill="#016078"/>
<path d="M272.01 168.124C273.258 167.257 274.754 166.82 276.273 166.878L574.002 178.351C579.342 178.557 582.491 184.43 579.707 188.992L420.68 449.61C419.425 451.666 417.201 452.932 414.792 452.963L192.183 455.773C184.817 455.865 178.099 460 174.697 466.533L133.909 544.859C131.261 549.943 123.959 549.864 121.423 544.723L49.6762 399.302C48.5653 397.05 48.7454 394.376 50.1481 392.294L138.093 261.737C138.578 261.017 139.192 260.394 139.905 259.898L272.01 168.124Z" fill="#02A399"/>
<path d="M225.112 102.912C226.427 101.084 228.542 100 230.794 100H527.498C532.842 100 536.215 105.747 533.609 110.413L384.735 376.961C383.56 379.064 381.387 380.415 378.981 380.538L156.645 391.918C149.288 392.294 142.734 396.684 139.586 403.344L102.261 482.302C99.7361 487.642 92.1398 487.647 89.6078 482.311L36.7713 370.948C35.6785 368.644 35.9243 365.929 37.413 363.86L225.112 102.912Z" fill="#68E570"/>
<path d="M190.112 28.9125C191.427 27.0839 193.542 26 195.794 26H492.498C497.842 26 501.215 31.7474 498.609 36.4134L349.735 302.961C348.56 305.064 346.387 306.415 343.981 306.538L121.645 317.918C114.288 318.294 107.734 322.684 104.586 329.344L67.2606 408.302C64.7361 413.642 57.1398 413.647 54.6078 408.311L1.77133 296.948C0.678542 294.644 0.924349 291.929 2.41299 289.86L190.112 28.9125Z" fill="#D9FC62"/>
</svg>
